<svg width="200" height="164" viewBox="0 0 200 164" fill="none" xmlns="http://www.w3.org/2000/svg">
<path d="M0 74.0002C4.73214 73.6114 8.28125 72.4029 10.6473 70.2648C13.112 68.1267 14 65.5958 14 62C14 57.9182 13.9007 51.7025 13.0134 44.0248C12.0275 34.8894 12 28.179 12 24C12 16.4196 13.8021 10.5932 18.337 6.41422C22.9706 2.13807 29.083 0 36.6741 0H47V17H40.6668C34.5545 17 31.4983 20.0687 31.4983 25.8026C31.4983 28.5238 31.8927 33.9662 32.6814 42.1297C32.7799 43.1016 33.0264 45.8714 33.4207 50.4391C33.8151 54.9096 34 59.0013 34 62.5C34 67.6508 32.7306 71.8198 30.1674 75.2213C27.6042 78.6227 23.71 80.8094 18.4849 81.7812V82.0728C23.71 83.1418 27.6042 85.3771 30.1674 88.7786C32.7306 92.0829 34 96.252 34 101.5C34 104.804 33.8151 108.847 33.4207 113.415C33.0264 117.886 32.7799 120.704 32.6814 121.87C31.8927 130.034 31.4983 135.428 31.4983 138.052C31.4983 141.064 32.0212 143.139 33.5 144.5C34.9788 145.861 37.5121 147 40.6668 147H47V164H36.6741C29.083 164 22.9706 161.862 18.337 157.586C13.8021 153.407 12 147.58 12 140C12 135.724 12.0275 128.965 13.0134 119.829C13.9007 112.152 14 105.985 14 102C14 98.4042 13.112 95.8731 10.6473 93.735C8.28125 91.5969 4.73214 90.3889 0 90.0002V74.0002Z" fill="black"/>
<path d="M86 27.0002V134.99H65V27.0002H86Z" fill="black"/>
<path d="M124.866 50.9077C121.119 50.9077 118.014 49.7901 115.549 47.5548C113.183 45.2224 112 42.3554 112 38.9539C112 35.5525 113.183 32.7341 115.549 30.4988C118.014 28.1664 121.119 27.0002 124.866 27.0002C128.513 27.0002 131.52 28.1664 133.886 30.4988C136.252 32.7341 137.435 35.5525 137.435 38.9539C137.435 42.3554 136.252 45.2224 133.886 47.5548C131.52 49.7901 128.513 50.9077 124.866 50.9077ZM135 127.441C135 136.382 132.535 143.053 128 146.941C123.564 150.925 117.38 152.941 109 152.941H100V134.99L106 134.941C109.155 134.941 110.718 134.204 112 132.941C113.282 131.775 114 130.662 114 127.941L114.176 60.0719H135.176L135 127.441Z" fill="black"/>
<path d="M200 90.0002C195.268 90.3889 191.669 91.5969 189.205 93.735C186.839 95.8731 186 98.4042 186 102C186 105.985 186.099 112.152 186.987 119.829C187.972 128.965 188 135.724 188 140C188 147.58 186.149 153.407 181.515 157.586C176.98 161.862 170.917 164 163.326 164H153V147H159.333C162.488 147 165.021 145.861 166.5 144.5C167.979 143.139 168.502 141.064 168.502 138.052C168.502 135.428 168.107 130.034 167.319 121.87C167.22 120.704 166.974 117.886 166.579 113.415C166.185 108.847 166 104.804 166 101.5C166 96.252 167.269 92.0829 169.833 88.7786C172.396 85.3771 176.29 83.1418 181.515 82.0728V81.7812C176.29 80.8094 172.396 78.6227 169.833 75.2213C167.269 71.8198 165.988 67.5436 165.988 62.3928C165.988 58.8942 166.185 54.9096 166.579 50.4391C166.974 45.8714 167.22 43.1016 167.319 42.1297C168.107 33.9662 168.502 28.5238 168.502 25.8026C168.502 20.0687 165.445 17 159.333 17H153V0H163.326C170.917 0 176.98 2.13807 181.515 6.41422C186.149 10.5932 188 16.4196 188 24C188 28.179 187.972 34.8894 186.987 44.0248C186.099 51.7025 186 57.9182 186 62C186 65.5958 186.839 68.1267 189.205 70.2648C191.669 72.4029 195.268 73.5194 200 73.9081V90.0002Z" fill="black"/>
</svg>
