<svg width="128" height="128" viewBox="0 0 128 128" fill="none" xmlns="http://www.w3.org/2000/svg">
<rect width="128" height="128" fill="white"/>
<path fill-rule="evenodd" clip-rule="evenodd" d="M58 7.31202V11.3359C32.2039 14.2424 12.014 35.666 11.037 62H14.0393H16H21.1429V81.752L28.0386 88.6477L39.2513 77.435C40.0014 76.6849 41.3168 76.5614 42.9081 77.0919C44.4994 77.6223 46.2363 78.7632 47.7365 80.2635C49.2368 81.7637 50.3777 83.5006 50.9081 85.0919C51.4386 86.6832 51.3151 87.9986 50.565 88.7487L39.3523 99.9614L46.248 106.857H57V113.514C33.3446 110.2 14.9965 90.3341 14.0393 66H11.037H10H7.03443C7.01154 65.3362 7 64.6694 7 64C7 34.5462 29.34 10.3102 58 7.31202ZM7.31202 70C10.3102 98.66 34.5462 121 64 121C64.334 121 64.6674 120.997 65 120.991V117V116.991V113.99C90.1316 113.497 110.718 94.4617 113.644 70H106.857V81.752L99.9614 88.6477L88.7487 77.435C87.9986 76.6849 86.6832 76.5614 85.0919 77.0919C83.5006 77.6223 81.7637 78.7632 80.2635 80.2635C78.7632 81.7637 77.6223 83.5006 77.0919 85.0919C76.5615 86.6832 76.6849 87.9986 77.435 88.7487L88.6477 99.9614L81.752 106.857H61V111V113.911V116.917C35.1254 115.473 14.2056 95.4688 11.3359 70H7.31202ZM69 120.784C98.1386 118.251 121 93.7955 121 64C121 63.3306 120.988 62.6638 120.966 62H118H116.963H113.961C112.99 37.3241 94.1364 17.2428 70 14.3563V21.1429H81.752L88.6477 28.0386L77.435 39.2513C76.6849 40.0014 76.5615 41.3168 77.0919 42.9081C77.6223 44.4994 78.7632 46.2362 80.2635 47.7365C81.7637 49.2368 83.5006 50.3777 85.0919 50.9081C86.6832 51.4385 87.9986 51.3151 88.7487 50.565L99.9614 39.3523L106.857 46.248V66H112H113.961H116.963C115.973 92.6733 95.2726 114.309 69 116.767V120.784ZM62 7.03443V11V11.037V14.0393C37.3241 15.01 17.2428 33.8636 14.3563 58H21.1429V46.248L28.0386 39.3523L39.2513 50.565C40.0014 51.3151 41.3168 51.4385 42.9081 50.9081C44.4994 50.3777 46.2363 49.2368 47.7365 47.7365C49.2368 46.2362 50.3777 44.4994 50.9081 42.9081C51.4386 41.3168 51.3151 40.0014 50.565 39.2513L39.3523 28.0386L46.248 21.1429H66V17V14.0393V11.037C92.334 12.014 113.758 32.2039 116.664 58H120.688C117.69 29.34 93.4538 7 64 7C63.3306 7 62.6638 7.01154 62 7.03443ZM55.3984 56.8672V74H65.9804V71H59.0312V56.8672H55.3984ZM65.0312 78.7812C65.6406 78.9531 66.3554 79.0391 67.1758 79.0391C68.9648 79.0391 70.3164 78.5156 71.2304 77.4688C72.1445 76.4219 72.6015 74.8984 72.6015 72.8984V56.8672H68.9687V72.9219C68.9687 73.9766 68.7969 74.75 68.4531 75.2422C68.1094 75.7422 67.539 75.9922 66.7422 75.9922C66.2265 75.9922 65.6562 75.9141 65.0312 75.7578V78.7812ZM34.0086 75.0208L36.1299 77.1421L27.6447 85.6274L25.5233 83.5061L34.0086 75.0208ZM52.9792 93.9914L50.8579 91.8701L42.3726 100.355L44.4939 102.477L52.9792 93.9914ZM83.5061 25.5233L85.6274 27.6447L77.1421 36.1299L75.0208 34.0086L83.5061 25.5233ZM102.477 44.4939L100.355 42.3726L91.8701 50.8579L93.9914 52.9792L102.477 44.4939ZM52.9792 34.0086L50.8579 36.1299L42.3726 27.6447L44.4939 25.5233L52.9792 34.0086ZM34.0086 52.9792L36.1299 50.8579L27.6447 42.3726L25.5233 44.4939L34.0086 52.9792ZM102.477 83.5061L100.355 85.6274L91.8701 77.1421L93.9914 75.0208L102.477 83.5061ZM83.5061 102.477L85.6274 100.355L77.1421 91.8701L75.0208 93.9914L83.5061 102.477Z" fill="#00A89E"/>
</svg>
